<svg id="レイヤー_6" data-name="レイヤー 6" xmlns="http://www.w3.org/2000/svg" width="140" height="28.968" viewBox="0 0 140 28.968"><defs><style>.cls-1{fill:#3e3b3f}</style></defs><path id="長方形_36" data-name="長方形 36" class="cls-1" transform="translate(91.837 17.503)" d="M0 0h6.652v2.957H0z"/><path id="パス_60" data-name="パス 60" class="cls-1" d="M796.406 10A7.641 7.641 0 00790 7.081a6.741 6.741 0 00-3.7.934 7.908 7.908 0 00-2.258 2.19l-.688.962V0h-4.694v28.358h4.613v-3.513l.687.961a8.262 8.262 0 002.007 2.119 7.436 7.436 0 004.107 1.007 7.326 7.326 0 006.352-3.146 13.585 13.585 0 002.314-8.1A12.056 12.056 0 00796.406 10zm-6.612 13.616a4.329 4.329 0 01-4.131-4.459 8.493 8.493 0 01.372-2.273 8.451 8.451 0 011.848-3.222 2.738 2.738 0 014.03 0 8.45 8.45 0 011.846 3.222 8.436 8.436 0 01.374 2.5 4.238 4.238 0 01-4.339 4.236z" transform="translate(-677.134)"/><path id="パス_61" data-name="パス 61" class="cls-1" d="M935.515 60.162a10.3 10.3 0 00-1.662-4.317 8.453 8.453 0 00-3.578-3.064 11.968 11.968 0 00-4.931-.98 10.107 10.107 0 00-7.465 2.887c-1.9 1.915-2.868 4.725-2.868 8.345 0 3.859 1.063 6.673 3.159 8.363a11.463 11.463 0 007.38 2.578 10.2 10.2 0 007.86-3.035 7.125 7.125 0 001.923-3.269h-5.1a4.935 4.935 0 01-1.147 1.4 5.173 5.173 0 01-3.381 1.08 6.143 6.143 0 01-3.317-.87c-1.528-.94-2.347-2.579-2.442-4.872l-.017-.391h15.777a26.179 26.179 0 00-.191-3.855zm-10.158 2.9a2.618 2.618 0 112.618-2.618 2.618 2.618 0 01-2.619 2.621z" transform="translate(-795.706 -45.046)"/><path id="パス_62" data-name="パス 62" d="M849.775 132.359a5.216 5.216 0 00-1.142-1.987 1.7 1.7 0 00-1.812-.446 1 1 0 01-.3 1.892 1.014 1.014 0 01-.541-.077.652.652 0 00-.889.348 3.67 3.67 0 00-.092.274 5.188 5.188 0 00-.23 1.381 2.667 2.667 0 002.516 2.778 2.617 2.617 0 002.717-2.617 5.246 5.246 0 00-.227-1.546z" transform="translate(-734.625 -112.9)" fill="#fbca5a"/><path id="パス_63" data-name="パス 63" class="cls-1" d="M8.047 29.211V4.973H0V.28h21.167v4.693h-8.011v24.238z" transform="translate(0 -.243)"/><path id="パス_64" data-name="パス 64" class="cls-1" d="M166.131 29.211l-1.768-6.055h-10.25l-1.813 6.055H147L156.388.28h5.951l9.3 28.931zM155.475 18.6h7.562l-3.729-12.773z" transform="translate(-127.833 -.243)"/><path id="パス_65" data-name="パス 65" class="cls-1" d="M365.3 29.211l-11.32-21.7v21.7h-4.69V.28h5.445l11.05 21.351V.28h4.69v28.931z" transform="translate(-303.748 -.243)"/><path id="パス_66" data-name="パス 66" class="cls-1" d="M533.1 28.931V0h19.114v4.693h-14.17v6.777h13.007v4.592h-13.007v8.1h14.823v4.772z" transform="translate(-463.592)"/></svg>